<svg xml:space="preserve" style="max-height: 500px" viewBox="7.199999999999999 14.372093023255815 136.8 77.84883720930233" y="0px" x="0px" xmlns:xlink="http://www.w3.org/1999/xlink" xmlns="http://www.w3.org/2000/svg" id="Layer_1" version="1.1" width="136.8" height="77.84883720930233">
<style type="text/css">
	.st0{fill:#0D51D9;}
	.st1{fill:#80C6FF;}
	.st2{fill:#4D9EFF;}
</style>
<g>
	<g>
		<path d="M167.2,31.7h-12.8v-9.6h12.8V31.7z M166.8,76.7h-12.1V37.3h12.1V76.7z" class="st0"/>
		<path d="M210.2,76.7h-12.1V57.2c0-1.6-0.1-3.2-0.2-4.8c-0.1-1.6-0.4-2.7-0.7-3.5c-0.4-0.9-1-1.5-1.8-1.9&#10;&#9;&#9;&#9;c-0.8-0.4-1.8-0.6-3.1-0.6c-1,0-2,0.2-3,0.6c-1,0.4-2.1,1-3.2,1.8v27.9H174V37.3H186v4.4c2-1.7,3.9-3,5.8-4c1.9-1,3.9-1.4,6.2-1.4&#10;&#9;&#9;&#9;c4,0,7,1.3,9.1,3.8c2.1,2.5,3.1,6.2,3.1,11L210.2,76.7L210.2,76.7z" class="st0"/>
		<path d="M241.8,31.4h-0.9c-0.5-0.1-1.2-0.3-2.2-0.5c-1-0.2-1.9-0.3-2.8-0.3c-2.4,0-4.1,0.5-5,1.4&#10;&#9;&#9;&#9;c-0.9,0.9-1.3,2.6-1.3,5.1v0.3h9.6v8.6H230v30.9H218V45.9h-4.8v-8.6h4.8v-1.1c0-4.8,1.2-8.4,3.7-10.8c2.5-2.4,6.2-3.6,11.3-3.6&#10;&#9;&#9;&#9;c1.7,0,3.4,0.1,4.9,0.2c1.5,0.1,2.8,0.3,3.9,0.5L241.8,31.4L241.8,31.4z" class="st0"/>
		<path d="M267.9,48.9h-1c-0.5-0.2-1.1-0.3-2-0.4c-0.9-0.1-1.8-0.1-2.9-0.1c-1.3,0-2.6,0.2-4,0.6&#10;&#9;&#9;&#9;c-1.4,0.4-2.7,0.8-4.1,1.3v26.4h-12.1V37.3H254V43c0.6-0.5,1.3-1.2,2.3-1.9c1-0.8,1.9-1.4,2.7-1.9c0.9-0.5,1.9-1,3.1-1.4&#10;&#9;&#9;&#9;c1.2-0.4,2.3-0.6,3.3-0.6c0.4,0,0.8,0,1.3,0c0.5,0,0.9,0.1,1.3,0.1L267.9,48.9L267.9,48.9z" class="st0"/>
		<path d="M291.8,72.6c-0.8,0.7-1.6,1.3-2.2,1.9c-0.7,0.6-1.5,1.1-2.6,1.7c-1.1,0.5-2.1,0.9-3.2,1.2&#10;&#9;&#9;&#9;c-1,0.3-2.5,0.4-4.3,0.4c-3.4,0-6.3-1.2-8.5-3.5c-2.3-2.3-3.4-5.3-3.4-8.8c0-2.9,0.6-5.3,1.7-7.1c1.1-1.8,2.8-3.2,5-4.3&#10;&#9;&#9;&#9;c2.2-1.1,4.8-1.8,7.8-2.2c3-0.4,6.3-0.7,9.8-1v-0.2c0-2.2-0.8-3.7-2.4-4.5c-1.6-0.8-3.9-1.2-7.1-1.2c-1.4,0-3.1,0.3-5,0.8&#10;&#9;&#9;&#9;c-1.9,0.5-3.8,1.2-5.6,2h-1v-9.5c1.2-0.4,3.1-0.8,5.8-1.2c2.7-0.5,5.4-0.7,8.1-0.7c6.7,0,11.5,1.1,14.6,3.4s4.6,5.7,4.6,10.3v26.8&#10;&#9;&#9;&#9;h-12L291.8,72.6L291.8,72.6z M291.8,66.4v-8.2c-2,0.2-3.7,0.4-5,0.5c-1.3,0.2-2.5,0.5-3.7,0.9c-1.1,0.4-1.9,0.9-2.5,1.7&#10;&#9;&#9;&#9;c-0.6,0.8-0.9,1.8-0.9,3c0,1.8,0.5,3.1,1.5,3.8c1,0.7,2.4,1,4.3,1c1.1,0,2.1-0.2,3.2-0.7C289.9,68,290.9,67.3,291.8,66.4" class="st0"/>
		<path d="M347.7,57c0,6.5-1.7,11.6-5.2,15.3c-3.5,3.7-8.4,5.6-14.8,5.6c-6.3,0-11.2-1.9-14.7-5.6&#10;&#9;&#9;&#9;c-3.5-3.7-5.3-8.8-5.3-15.3c0-6.6,1.8-11.7,5.3-15.4c3.5-3.7,8.4-5.6,14.7-5.6c6.3,0,11.3,1.9,14.8,5.6&#10;&#9;&#9;&#9;C346,45.4,347.7,50.5,347.7,57 M335.4,57.1c0-2.3-0.2-4.3-0.6-5.8c-0.4-1.6-0.9-2.8-1.6-3.7c-0.7-1-1.5-1.7-2.4-2.1&#10;&#9;&#9;&#9;c-0.9-0.4-1.9-0.6-3.1-0.6c-1.1,0-2.1,0.2-2.9,0.5c-0.9,0.3-1.7,1-2.4,1.9c-0.7,0.9-1.2,2.2-1.7,3.8c-0.4,1.6-0.6,3.6-0.6,6&#10;&#9;&#9;&#9;s0.2,4.4,0.6,5.8c0.4,1.5,0.9,2.7,1.5,3.6c0.6,0.9,1.4,1.6,2.4,2c1,0.4,2,0.6,3.2,0.6c1,0,1.9-0.2,2.9-0.6c1-0.4,1.8-1.1,2.4-1.9&#10;&#9;&#9;&#9;c0.7-1,1.3-2.2,1.6-3.6C335.2,61.6,335.4,59.6,335.4,57.1" class="st0"/>
		<path d="M388.3,76.7h-12.1V57.2c0-1.6-0.1-3.2-0.2-4.8c-0.1-1.6-0.4-2.7-0.7-3.5c-0.4-0.9-1-1.5-1.8-1.9&#10;&#9;&#9;&#9;c-0.8-0.4-1.8-0.6-3.1-0.6c-1,0-2,0.2-3,0.6c-1,0.4-2.1,1-3.2,1.8v27.9H352V37.3h12.1v4.4c2-1.7,3.9-3,5.8-4&#10;&#9;&#9;&#9;c1.9-1,3.9-1.4,6.2-1.4c4,0,7,1.3,9.1,3.8s3.1,6.2,3.1,11V76.7z" class="st0"/>
	</g>
	<g>
		<path d="M126.1,71.7c0,2.6-0.8,5.2-2.4,7.5l-24-17.7l-10.7-7.9l-5-3.7l-0.3-0.2L63.3,34.7l-4-2.9l-0.2-0.1l7.3-10.3&#10;&#9;&#9;&#9;l0-0.1l1,0.8l1.8,1.3l1.7,1.3l28.6,21.1l10.7,7.9l10.5,7.8C124.3,63.9,126.1,67.8,126.1,71.7" class="st1"/>
		<path d="M138.8,16.4L99.7,45.8l-10.7,7.9l-5,3.7l0,0c0,0,0,0,0-0.1l-0.3,0.2L63.6,72.4c-0.1,0.1-0.2,0.2-0.3,0.3&#10;&#9;&#9;&#9;l-4,2.9c0,0-0.1,0.1-0.1,0.1c-3.7,2.1-7.9,3.4-12.4,3.4c-13.8,0-24.9-11.4-24.9-25.4S33,28.3,46.8,28.3c4.6,0,8.9,1.3,12.5,3.4&#10;&#9;&#9;&#9;c1.4,0.8,2.8,1.8,4,2.9l20.5,15.1l0.3,0.2c-1-10.1-5.8-19-13-25.3c-6.5-5.7-15-9.1-24.3-9.1c-20.7,0-37.5,17.1-37.5,38.1&#10;&#9;&#9;&#9;c0,16.4,10.2,30.5,24.5,35.8c4,1.5,8.4,2.3,12.9,2.3c0.6,0,1.1,0,1.7,0c8.6-0.4,16.5-3.7,22.6-9.1l0.4-0.3l28.3-20.9l10.7-7.9&#10;&#9;&#9;&#9;L136,34.2c3.4-2.5,5.2-6.4,5.2-10.3C141.2,21.3,140.4,18.7,138.8,16.4" class="st0"/>
		<path d="M63.3,53.3c0,9.3-7.4,16.8-16.5,16.8s-16.5-7.5-16.5-16.8c0-0.6,0-1.1,0.1-1.7c0,0,0,0,0-0.1&#10;&#9;&#9;&#9;c0.6-5.6,3.9-10.4,8.6-13c0,0.2,0,0.3,0,0.5v6.5c0,2.2,0.9,4.3,2.3,5.7c1.4,1.5,3.4,2.4,5.6,2.4c4.4,0,8-3.6,8-8.1V39&#10;&#9;&#9;&#9;c0-0.1,0-0.2,0-0.3c4.9,2.8,8.3,8.1,8.4,14.3C63.3,53,63.3,53.2,63.3,53.3" class="st0"/>
		<polygon points="99.8,61.5 110.4,53.7 112.8,55.4 100.2,61.8" class="st2"/>
		<path d="M51.4,37.4v7.2c0,2.7-2,5-4.4,5c-2.4,0-4.4-2.2-4.4-5v-7.2c0-0.1,0-0.2,0-0.3c0.1,0,0.1-0.1,0.2-0.1&#10;&#9;&#9;&#9;c1.3-0.3,2.7-0.5,4.1-0.5c1.5,0,2.9,0.2,4.3,0.6c0.1,0,0.2,0.1,0.2,0.1C51.4,37.3,51.4,37.4,51.4,37.4" class="st1"/>
	</g>
</g>
</svg>